<svg width="21" height="23" viewBox="0 0 21 23" fill="none" xmlns="http://www.w3.org/2000/svg">
<path d="M5.775 8.07562C6.13935 7.66481 6.73575 7.27551 7.6125 7.27551C8.8221 7.27551 9.6012 8.12724 9.87525 9.06178C10.1409 9.97266 9.98025 11.0997 9.22425 11.8772C8.96204 12.1354 8.68392 12.3761 8.3916 12.5978L8.3496 12.6311C8.0556 12.8634 7.7931 13.0742 7.5621 13.3086C7.29435 13.5839 7.0749 13.884 6.94785 14.2657H9.1875C9.39636 14.2657 9.59666 14.3507 9.74435 14.502C9.89203 14.6532 9.975 14.8584 9.975 15.0723C9.975 15.2862 9.89203 15.4914 9.74435 15.6426C9.59666 15.7939 9.39636 15.8789 9.1875 15.8789H6.0375C5.82864 15.8789 5.62834 15.7939 5.48065 15.6426C5.33297 15.4914 5.25 15.2862 5.25 15.0723C5.25 13.7313 5.8002 12.8322 6.4512 12.1676C6.762 11.8493 7.1001 11.5815 7.3857 11.3546L7.38885 11.3524C7.68915 11.1148 7.92225 10.9298 8.1081 10.7394C8.3937 10.4448 8.49345 9.95976 8.3664 9.52421C8.24565 9.11448 7.9779 8.88864 7.6125 8.88864C7.24185 8.88864 7.05075 9.03597 6.9405 9.16072C6.87599 9.23363 6.82351 9.31681 6.7851 9.40699V9.41022C6.72077 9.61386 6.58009 9.783 6.39401 9.88041C6.20793 9.97782 5.99168 9.99553 5.79285 9.92965C5.59402 9.86376 5.42888 9.71968 5.33377 9.52909C5.23866 9.3385 5.22137 9.11702 5.2857 8.91338L5.32245 8.81014C5.43033 8.54039 5.5831 8.29187 5.77395 8.07562H5.775ZM11.8125 7.27551C12.0214 7.27551 12.2217 7.36049 12.3693 7.51175C12.517 7.66301 12.6 7.86816 12.6 8.08208V11.0395H14.175V8.08208C14.175 7.86816 14.258 7.66301 14.4057 7.51175C14.5533 7.36049 14.7536 7.27551 14.9625 7.27551C15.1714 7.27551 15.3717 7.36049 15.5193 7.51175C15.667 7.66301 15.75 7.86816 15.75 8.08208V15.04C15.75 15.254 15.667 15.4591 15.5193 15.6104C15.3717 15.7616 15.1714 15.8466 14.9625 15.8466C14.7536 15.8466 14.5533 15.7616 14.4057 15.6104C14.258 15.4591 14.175 15.254 14.175 15.04V12.6526H11.8125C11.6036 12.6526 11.4033 12.5676 11.2557 12.4164C11.108 12.2651 11.025 12.06 11.025 11.846V8.08208C11.025 7.86816 11.108 7.66301 11.2557 7.51175C11.4033 7.36049 11.6036 7.27551 11.8125 7.27551ZM21 11.5772C21 5.63765 16.2991 0.822998 10.5 0.822998C4.70085 0.822998 0 5.63765 0 11.5772C0 17.5167 4.70085 22.3314 10.5 22.3314C16.2991 22.3314 21 17.5167 21 11.5772ZM1.575 11.5772C1.575 9.15283 2.51531 6.82776 4.18907 5.11348C5.86283 3.3992 8.13294 2.43613 10.5 2.43613C12.8671 2.43613 15.1372 3.3992 16.8109 5.11348C18.4847 6.82776 19.425 9.15283 19.425 11.5772C19.425 14.0015 18.4847 16.3266 16.8109 18.0409C15.1372 19.7552 12.8671 20.7183 10.5 20.7183C8.13294 20.7183 5.86283 19.7552 4.18907 18.0409C2.51531 16.3266 1.575 14.0015 1.575 11.5772Z" fill="#121110"/>
</svg>
