<svg width="17" height="17" viewBox="0 0 17 17" fill="none" xmlns="http://www.w3.org/2000/svg">
<path d="M2.19465 6.36958C1.49876 4.80097 2.18415 3.00643 3.71038 1.97382C3.98121 1.79051 4.31002 1.72327 4.62984 1.78581C4.94966 1.84834 5.2364 2.03594 5.43166 2.31039L6.39381 3.66252C6.54866 3.88002 6.63857 4.14013 6.65202 4.40945C6.66547 4.67876 6.60184 4.94501 6.46929 5.17401L5.30015 7.1884C5.24256 7.28786 5.21077 7.40161 5.20788 7.51857C5.20498 7.63554 5.23108 7.75172 5.28363 7.8558L5.31747 7.91914L5.40333 8.07714C5.83323 8.84106 6.3585 9.54235 6.965 10.1621C7.62015 10.8176 8.36061 11.3721 9.16359 11.8088L9.22626 11.8411C9.32717 11.8922 9.43865 11.9153 9.54981 11.9081C9.66097 11.9008 9.76804 11.8635 9.86057 11.7997L11.7392 10.5041C11.9528 10.3571 12.2043 10.281 12.4615 10.2854C12.7187 10.2899 12.9699 10.3747 13.1828 10.5291L14.5142 11.4921C15.0688 11.8927 15.2341 12.673 14.8938 13.2707C13.9632 14.9076 12.2702 15.6848 10.7511 15.0083C8.88752 14.1739 7.18163 12.9894 5.71864 11.5141C4.24816 10.0425 3.05215 8.29722 2.19341 6.36994L2.19465 6.36958ZM6.60635 7.55969L7.57407 5.8879C7.83942 5.42999 7.96694 4.89749 7.94026 4.35878C7.91359 3.82007 7.73393 3.29973 7.42435 2.86455L6.46344 1.51206C6.07049 0.959839 5.49344 0.582398 4.84987 0.456646C4.20631 0.330894 3.54466 0.466294 2.99976 0.835257C1.10436 2.11885 -0.0170233 4.57591 1.02545 6.92641C1.75366 8.56727 2.93572 10.5793 4.83311 12.4851C6.4112 14.0757 8.25112 15.3526 10.261 16.252C12.5395 17.2662 14.849 16.0116 16.007 13.9765C16.3385 13.3945 16.4436 12.6988 16.301 12.0314C16.1584 11.3639 15.7788 10.7751 15.2396 10.3849L13.9078 9.42066C13.4819 9.11248 12.9796 8.94333 12.4653 8.93489C11.951 8.92646 11.4482 9.07912 11.0214 9.37331L9.46145 10.4483C8.88244 10.0974 8.34365 9.67726 7.85607 9.19655C7.37781 8.70624 6.95819 8.15692 6.60672 7.561L6.60635 7.55969Z" fill="#121110"/>
</svg>
