<svg width="36" height="40" viewBox="0 0 36 40" fill="none" xmlns="http://www.w3.org/2000/svg">
<path d="M4.96696 3.95517L13.1228 5.0015L14.9501 11.5863L10.3837 13.7208C9.83726 13.9763 9.46456 14.4765 9.39049 15.0538C9.37437 15.216 9.39027 15.0555 9.39027 15.0555L9.39004 15.0573L9.38955 15.0612L9.3885 15.0699L9.38603 15.0913C9.38426 15.1073 9.38223 15.1267 9.38009 15.1494C9.37583 15.1948 9.3711 15.2537 9.36696 15.3253C9.35872 15.4684 9.35288 15.6623 9.35802 15.9013C9.36833 16.3788 9.42264 17.038 9.59087 17.8285C9.92863 19.4159 10.7229 21.5169 12.5127 23.7162C14.3024 25.9155 16.2437 27.1757 17.7769 27.8872C18.5404 28.2414 19.1987 28.4579 19.6829 28.5881C19.9251 28.6532 20.1245 28.6969 20.2724 28.7255C20.3464 28.7397 20.4077 28.7502 20.4551 28.7579C20.4788 28.7616 20.4991 28.7648 20.5157 28.7671L20.538 28.7703L20.5473 28.7715L20.5513 28.772L20.5533 28.7723C20.5533 28.7723 20.7574 28.7877 20.5551 28.7725C21.2432 28.8608 21.9195 28.5719 22.3022 28.0264L23.8154 25.8696L31.7094 28.1799L30.7524 35.6394C26.85 35.6746 16.4267 34.8655 9.28086 26.085C2.13504 17.3045 3.94469 7.5294 4.96696 3.95517ZM13.0495 16.3764L16.5967 14.7183C18.1423 13.9958 18.9314 12.3346 18.4878 10.7364L16.6605 4.15163C16.277 2.76968 15.0514 1.73854 13.5659 1.54796L5.31511 0.489448C3.66482 0.277729 1.97159 1.16831 1.48229 2.8357C0.369138 6.62908 -1.93665 17.9553 6.3987 28.1974C14.7341 38.4396 26.8641 39.1852 31.0129 39.122C32.8365 39.094 34.1725 37.7644 34.3738 36.1956L35.3423 28.646C35.5589 26.9577 34.4598 25.3524 32.7437 24.85L24.8497 22.5396C23.3085 22.0886 21.6514 22.6438 20.7643 23.9083L19.9813 25.0242C19.7895 24.9526 19.5762 24.865 19.346 24.7582C18.265 24.2567 16.7949 23.3241 15.3949 21.6038C13.9948 19.8835 13.4156 18.298 13.1775 17.1787C13.1131 16.8762 13.0735 16.6065 13.0495 16.3764Z" fill="#2F8301"/>
</svg>
