<svg width="15" height="10" viewBox="0 0 15 10" fill="none" xmlns="http://www.w3.org/2000/svg">
<path d="M9.98622 0.270994C9.03527 0.381201 8.1306 0.797511 7.43983 1.41773C7.11232 1.67315 6.81427 1.95041 6.54568 2.24951C6.18239 0.71182 4.60096 -0.234333 3.05881 0.116958C1.51666 0.468249 0.57694 2.03629 0.940228 3.57398C1.30351 5.11167 2.88495 6.05783 4.4271 5.70654C4.70481 5.64068 4.95307 5.55298 5.14242 5.4216L5.79042 5.9021L5.00076 6.04132C4.28404 6.14402 3.78402 6.81508 3.87029 7.5585C3.97829 8.27275 4.60456 8.78242 5.32128 8.67972L7.91187 8.51699C8.36772 8.76441 8.85933 8.90245 9.36496 8.9603C9.73875 9.01099 10.156 9.00332 10.5144 8.95197L11.074 9.36694C11.2508 9.49798 11.4555 9.46864 11.586 9.29358L14.5426 5.32555C14.6513 5.17966 14.6127 4.92458 14.4655 4.81537L13.6996 4.24751C13.4352 3.19082 12.7984 2.26567 11.9443 1.63229L10.2359 0.365525C10.1398 0.248985 10.0592 0.234482 9.98622 0.270994ZM2.4347 4.63684C1.4627 3.9161 1.28385 2.56047 2.03072 1.61947C2.74814 0.656643 4.10866 0.487749 5.05892 1.23767C5.58911 1.6308 5.88646 2.21367 5.9061 2.86239L4.43337 1.77035C4.16701 1.59598 3.84442 1.52919 3.53173 1.58369C3.21904 1.63818 2.93995 1.80984 2.75166 2.06346C2.33089 2.5668 2.42487 3.36124 2.95506 3.75437L4.4867 4.89009C3.82257 5.16769 3.04554 5.04448 2.4347 4.63684ZM11.5017 2.16481C12.2893 2.70349 12.83 3.5121 13.0495 4.44492C13.065 4.54695 13.0804 4.64899 13.1688 4.71451L13.7873 5.17316L11.2655 8.55766L10.8531 8.25189C10.7647 8.18637 10.6329 8.1792 10.5305 8.19387C10.2016 8.26707 9.86498 8.28924 9.49119 8.23856C9.0662 8.19521 8.62579 8.04983 8.22885 7.84609C8.16994 7.80241 8.08929 7.78791 8.00864 7.7734L5.28621 7.92896C5.13262 7.95097 4.97133 7.92196 4.82405 7.81276C4.70623 7.72539 4.60244 7.55784 4.5793 7.40478C4.55475 7.0695 4.77215 6.77773 5.10105 6.70454L6.5857 6.4918L7.46934 7.14702L7.58785 6.37426L3.34637 3.22919C3.16193 3.04713 3.11564 2.74102 3.31902 2.52945C3.4712 2.32521 3.77065 2.23018 3.97683 2.38306L7.36412 4.89475L7.91674 4.39858L6.56182 3.3939C6.55411 3.34289 6.57585 3.31371 6.56813 3.26269C6.72031 3.05846 6.90195 2.87606 7.08358 2.69366L8.58577 3.80754L9.02197 3.40624L7.49033 2.27052L7.83957 1.98592C7.97773 1.86188 8.14534 1.75968 8.31294 1.65747L9.78568 2.74951L10.2219 2.3482L8.86697 1.34353C9.18044 1.1683 9.53109 1.06593 9.88945 1.01458L11.5017 2.16481Z" fill="#2D8301"/>
</svg>
