<svg width="39" height="30" viewBox="0 0 39 30" fill="none" xmlns="http://www.w3.org/2000/svg">
<path opacity="0.8" d="M38.2201 13.6821L29.2511 7.5235V3.32898C29.2989 2.48832 28.9542 1.66579 28.2926 1.04175C27.6311 0.417708 26.7066 0.043078 25.722 0H3.49458C2.5169 0.051532 1.60237 0.429826 0.949107 1.05293C0.295846 1.67603 -0.0435367 2.49377 0.00448154 3.32898V19.9739C-0.0136147 20.6349 0.199253 21.2855 0.61595 21.8428C1.03265 22.4001 1.6343 22.8389 2.34421 23.1031C1.98513 23.8531 1.84518 24.6663 1.93645 25.4727C2.02771 26.2791 2.34745 27.0545 2.86806 27.7319C3.38868 28.4092 4.09454 28.9683 4.92474 29.3608C5.75494 29.7533 6.68455 29.9675 7.63335 29.9849C8.58216 30.0022 9.52166 29.8222 10.3708 29.4604C11.2199 29.0986 11.9532 28.5659 12.5073 27.9082C13.0615 27.2505 13.4198 26.4875 13.5514 25.6852C13.6831 24.8829 13.5841 24.0653 13.263 23.3029H25.6635C25.3429 24.0571 25.2398 24.8662 25.3631 25.6616C25.4864 26.4571 25.8325 27.2154 26.3719 27.8725C26.9114 28.5296 27.6284 29.066 28.4621 29.4363C29.2959 29.8066 30.222 30 31.1619 30C32.1018 30 33.0279 29.8066 33.8617 29.4363C34.6954 29.066 35.4124 28.5296 35.9519 27.8725C36.4913 27.2154 36.8374 26.4571 36.9607 25.6616C37.084 24.8662 36.9809 24.0571 36.6603 23.3029H37.0502C37.5673 23.3029 38.0633 23.1275 38.4289 22.8154C38.7946 22.5032 39 22.0798 39 21.6384V14.9804C38.994 14.7277 38.9207 14.4794 38.7856 14.2544C38.6504 14.0295 38.457 13.8338 38.2201 13.6821ZM35.1004 15.7794V19.9739H29.2511V11.7846L35.1004 15.7794ZM9.75336 24.9674C9.75336 25.2966 9.63901 25.6184 9.42476 25.8921C9.21052 26.1658 8.90601 26.3792 8.54973 26.5052C8.19346 26.6311 7.80142 26.6641 7.4232 26.5999C7.04498 26.5357 6.69757 26.3771 6.42489 26.1443C6.1522 25.9116 5.96651 25.615 5.89127 25.2921C5.81604 24.9692 5.85465 24.6345 6.00223 24.3304C6.1498 24.0263 6.39971 23.7663 6.72035 23.5834C7.04099 23.4005 7.41796 23.3029 7.80359 23.3029C8.3207 23.3029 8.81663 23.4782 9.18228 23.7904C9.54794 24.1025 9.75336 24.5259 9.75336 24.9674ZM19.5022 19.9739H3.90403V3.32898H25.3516V19.9739H19.5022ZM33.1507 24.9674C33.1507 25.2966 33.0363 25.6184 32.8221 25.8921C32.6078 26.1658 32.3033 26.3792 31.947 26.5052C31.5908 26.6311 31.1987 26.6641 30.8205 26.5999C30.4423 26.5357 30.0949 26.3771 29.8222 26.1443C29.5495 25.9116 29.3638 25.615 29.2886 25.2921C29.2134 24.9692 29.252 24.6345 29.3995 24.3304C29.5471 24.0263 29.797 23.7663 30.1177 23.5834C30.4383 23.4005 30.8153 23.3029 31.2009 23.3029C31.718 23.3029 32.2139 23.4782 32.5796 23.7904C32.9453 24.1025 33.1507 24.5259 33.1507 24.9674Z" fill="#2D8301"/>
</svg>
