<svg width="36" height="40" viewBox="0 0 36 40" fill="none" xmlns="http://www.w3.org/2000/svg">
<path d="M9.38948 15.0699L9.38982 15.0699L9.38948 15.0699ZM9.38948 15.0699L9.387 15.0913C9.38524 15.1073 9.38321 15.1267 9.38107 15.1494L10.3767 15.2427L9.38948 15.0699ZM21.1863 28.749C21.2066 28.4544 21.1311 28.1258 20.8686 27.8044C20.8359 27.7977 20.7965 27.7912 20.7746 27.7879C20.7445 27.7869 20.7141 27.7846 20.6833 27.7806L21.1863 28.749ZM21.1863 28.749C20.983 28.7909 20.7701 28.7999 20.5561 28.7725L21.1863 28.749ZM20.6259 27.8275L20.6004 28.1642L20.5968 28.211L20.5767 28.4766M20.6259 27.8275L20.5587 28.7376L20.5543 28.7723L20.5572 28.7335L20.5631 28.6561L20.5716 28.5445M20.6259 27.8275L20.6307 27.7809C20.6307 27.7809 20.6308 27.7809 20.6308 27.7808C20.6338 27.7799 20.6366 27.7794 20.6391 27.7792C20.6437 27.7792 20.6487 27.7793 20.6538 27.7794C20.6555 27.7794 20.6573 27.7794 20.659 27.7794C20.6614 27.7795 20.6638 27.7795 20.6661 27.7796L20.5808 28.4446L20.5767 28.4766M20.6259 27.8275L20.5716 28.5445M20.5767 28.4766L20.539 28.7703L20.5716 28.5445M20.5767 28.4766L20.5716 28.5445M20.4561 28.7579L20.6127 27.7888C20.6189 27.7854 20.6245 27.7829 20.6294 27.7813L20.5167 28.7671C20.5 28.7648 20.4798 28.7616 20.4561 28.7579ZM20.4561 28.7579L20.6087 27.7911C20.5637 27.8176 20.4916 27.8875 20.4157 27.9901L20.2734 28.7255M20.4561 28.7579C20.4087 28.7502 20.3474 28.7397 20.2734 28.7255M20.2734 28.7255L20.4144 27.9919C20.2931 28.1565 20.1624 28.4048 20.1177 28.6936C20.1745 28.7059 20.2265 28.7164 20.2734 28.7255ZM20.4632 27.7437C20.5247 27.7555 20.5752 27.7642 20.6139 27.7704L20.4632 27.7437ZM20.4632 27.7437C20.3369 27.7192 20.161 27.6809 19.9436 27.6224M20.4632 27.7437L10.3663 15.3831C10.3595 15.5014 10.3542 15.6688 10.3588 15.8797M19.9436 27.6224C19.9436 27.6224 19.9436 27.6224 19.9436 27.6224L19.6839 28.5881L19.9436 27.6224ZM19.9436 27.6224C19.508 27.5053 18.9043 27.3074 18.1987 26.9801C16.7837 26.3234 14.9705 25.151 13.2893 23.085L13.2893 23.085C11.6089 21.0201 10.8779 19.0677 10.5699 17.6204L10.5699 17.6204C10.4161 16.8976 10.3679 16.3014 10.3588 15.8797M10.3588 15.8797L9.359 15.9013M10.3588 15.8797C10.3588 15.8797 10.3588 15.8798 10.3588 15.8798L9.359 15.9013M9.359 15.9013C9.3693 16.3788 9.42362 17.038 9.59184 17.8285M9.359 15.9013C9.35726 15.8203 9.35678 15.7446 9.35722 15.6742L9.59184 17.8285M9.59184 17.8285C9.92961 19.4159 10.7239 21.5169 12.5137 23.7162L9.59184 17.8285ZM11.9822 15.7719L12.627 15.4705L16.1742 13.8124C16.1742 13.8124 16.1743 13.8124 16.1743 13.8124C17.2966 13.2877 17.8326 12.1115 17.5252 11.0038L17.5251 11.0038L15.6979 4.41903L16.6614 4.15163L15.6979 4.41902C15.4281 3.44681 14.5491 2.68216 13.4396 2.53983L5.18883 1.48132C3.93853 1.32091 2.77019 2.00164 2.44281 3.11728C1.36173 6.80134 -0.845734 17.7103 7.17529 27.5662C15.2133 37.443 26.9405 38.184 30.9986 38.1221C32.3128 38.102 33.2433 37.1561 33.3829 36.0684L34.3514 28.5188C34.5008 27.3546 33.7438 26.1844 32.4637 25.8097L24.5699 23.4994C24.5699 23.4994 24.5698 23.4994 24.5698 23.4994C23.4176 23.1623 22.2119 23.5874 21.5839 24.4826L21.5839 24.4827L20.8009 25.5986L20.3568 26.2315L19.6325 25.961C19.418 25.8809 19.181 25.7836 18.9262 25.6654L18.9261 25.6654C17.7268 25.109 16.1287 24.0885 14.6203 22.235C13.1108 20.3804 12.4684 18.6463 12.2004 17.3869L11.9822 15.7719ZM11.9822 15.7719L12.0559 16.4799M11.9822 15.7719L12.0559 16.4799M12.0559 16.4799C12.0832 16.7429 12.1282 17.0477 12.2004 17.3868L12.0559 16.4799ZM5.09518 2.96329L4.2428 2.85394L10.3663 15.3828C10.3691 15.3343 10.3721 15.2941 10.3749 15.2625L10.3774 15.2436L10.3784 15.234L10.3789 15.2294L10.3791 15.2277L10.3796 15.2226L10.3796 15.2224L10.3797 15.222L10.3797 15.2219L10.3797 15.2219L10.3798 15.2206L10.3799 15.2199L10.3848 15.1702C10.4167 14.9512 10.5625 14.7416 10.8081 14.6267C10.8081 14.6267 10.8081 14.6267 10.8081 14.6267L15.3746 12.4922L16.1409 12.134L15.9147 11.3189L14.0874 4.7341L13.9098 4.09414L13.251 4.00963L5.09518 2.96329ZM10.2855 15.1427L9.39313 15.0412C9.41504 14.8802 9.46023 14.7252 9.52595 14.58C9.78776 14.5945 10.0743 14.6867 10.362 14.9165C10.3751 15.0043 10.38 15.0991 10.3816 15.1522L10.2855 15.1427ZM20.7153 27.7816L20.7071 27.781L20.66 27.7774L20.6593 27.7773L20.6542 27.7766L20.7153 27.7816Z" fill="#2F8301" stroke="#2F8301" stroke-width="2"/>
</svg>
