<svg width="13" height="12" viewBox="0 0 13 12" fill="none" xmlns="http://www.w3.org/2000/svg">
<path d="M12.7304 5.90367L7.18974 0.491246L6.81836 0.128269C6.73374 0.0461104 6.6193 0 6.50003 0C6.38075 0 6.26631 0.0461104 6.18169 0.128269L0.269637 5.90367C0.182929 5.98808 0.114403 6.08862 0.0681021 6.19934C0.0218016 6.31006 -0.00133445 6.42873 5.94356e-05 6.54834C0.00579512 7.04165 0.425934 7.43546 0.930675 7.43546H1.54009V12H11.46V7.43546H12.0823C12.3275 7.43546 12.5583 7.34156 12.7318 7.17199C12.8173 7.08876 12.885 6.98979 12.931 6.88081C12.977 6.77184 13.0005 6.65502 13 6.53713C13 6.29888 12.9039 6.07324 12.7304 5.90367ZM7.30302 10.991H5.69703V8.13198H7.30302V10.991ZM10.4275 6.42641V10.991H8.22073V7.79563C8.22073 7.48591 7.96406 7.23505 7.64716 7.23505H5.35289C5.03599 7.23505 4.77932 7.48591 4.77932 7.79563V10.991H2.57251V6.42641H1.19595L6.50146 1.24523L6.8327 1.56896L11.8055 6.42641H10.4275Z" fill="black"/>
</svg>
