<svg width="32" height="39" viewBox="0 0 32 39" fill="none" xmlns="http://www.w3.org/2000/svg">
<path d="M15.5999 23.3999C19.9016 23.3999 23.3999 19.9016 23.3999 15.5999C23.3999 11.2981 19.9016 7.7998 15.5999 7.7998C11.2981 7.7998 7.7998 11.2981 7.7998 15.5999C7.7998 19.9016 11.2981 23.3999 15.5999 23.3999ZM15.5999 11.6998C17.7507 11.6998 19.4999 13.449 19.4999 15.5999C19.4999 17.7507 17.7507 19.4999 15.5999 19.4999C13.449 19.4999 11.6998 17.7507 11.6998 15.5999C11.6998 13.449 13.449 11.6998 15.5999 11.6998Z" fill="#2D8301"/>
<path d="M14.4693 38.6376C14.7993 38.8733 15.1947 39 15.6003 39C16.0058 39 16.4013 38.8733 16.7313 38.6376C17.3241 38.2184 31.257 28.1582 31.2004 15.6001C31.2004 6.99861 24.2018 0 15.6003 0C6.99878 0 0.000171675 6.99861 0.000171675 15.5904C-0.0563788 28.1582 13.8765 38.2184 14.4693 38.6376ZM15.6003 3.90003C22.0529 3.90003 27.3004 9.14752 27.3004 15.6099C27.3413 24.264 18.7437 32.0349 15.6003 34.5835C12.4588 32.0329 3.85925 24.2601 3.9002 15.6001C3.9002 9.14752 9.14769 3.90003 15.6003 3.90003Z" fill="#2D8301"/>
</svg>
