<svg width="40" height="40" viewBox="0 0 40 40" fill="none" xmlns="http://www.w3.org/2000/svg">
<path d="M21 19.1716V19.5858L21.2929 19.8787L26.7071 25.2929C27.0976 25.6834 27.0976 26.3166 26.7071 26.7071C26.3166 27.0976 25.6834 27.0976 25.2929 26.7071L19.2929 20.7071C19.1054 20.5196 19 20.2651 19 20V10C19 9.44771 19.4477 9 20 9C20.5523 9 21 9.44771 21 10V19.1716ZM20 3C10.6112 3 3 10.6112 3 20C3 29.3889 10.6112 37 20 37C29.3889 37 37 29.3889 37 20C37 10.6112 29.3889 3 20 3ZM1 20C1 9.50659 9.50659 1 20 1C30.4933 1 39 9.50659 39 20C39 30.4933 30.4933 39 20 39C9.50659 39 1 30.4933 1 20Z" fill="#5E9935" stroke="#2D8301" stroke-width="2"/>
</svg>
