<svg width="48" height="48" viewBox="0 0 48 48" fill="none" xmlns="http://www.w3.org/2000/svg">
<path d="M13.5566 3.42857L3.42857 15.0034V44.5714H44.5714V15.0034L34.4434 3.42857H13.5566ZM12.7783 4.62055e-07H35.2217C35.4657 -0.00017866 35.7069 0.0517236 35.9292 0.152238C36.1515 0.252752 36.3498 0.399563 36.5109 0.582857L47.5749 13.2309C47.8485 13.543 47.9995 13.9438 48 14.3589V46.2857C48 46.7404 47.8194 47.1764 47.4979 47.4979C47.1764 47.8194 46.7404 48 46.2857 48H1.71429C1.25963 48 0.823594 47.8194 0.502103 47.4979C0.180612 47.1764 6.00379e-07 46.7404 6.00379e-07 46.2857V14.3589C-0.000347591 13.9426 0.150766 13.5404 0.425143 13.2274L11.4857 0.589715C11.6465 0.404735 11.8451 0.256379 12.068 0.154651C12.291 0.0529223 12.5332 0.000187005 12.7783 4.62055e-07Z" fill="#69BF3D"/>
<path d="M0 13.7144H48V17.1429H0V13.7144Z" fill="#69BF3D"/>
<path d="M20.5711 14.136V30.8571H27.4283V14.136L24.754 3.42857H23.2454L20.5711 14.136ZM20.5711 0H27.4283L30.8569 13.7143V32.5714C30.8569 33.0261 30.6763 33.4621 30.3548 33.7836C30.0333 34.1051 29.5972 34.2857 29.1426 34.2857H18.8569C18.4022 34.2857 17.9662 34.1051 17.6447 33.7836C17.3232 33.4621 17.1426 33.0261 17.1426 32.5714V13.7143L20.5711 0Z" fill="#69BF3D"/>
</svg>
