<svg width="41" height="42" viewBox="0 0 41 42" fill="none" xmlns="http://www.w3.org/2000/svg">
<path d="M4.31579 4.42105V11.0526H34.5263V4.42105H4.31579ZM2.15789 0H36.6842C37.2565 0 37.8054 0.232894 38.2101 0.647448C38.6148 1.062 38.8421 1.62426 38.8421 2.21053V13.2632C38.8421 13.8494 38.6148 14.4117 38.2101 14.8262C37.8054 15.2408 37.2565 15.4737 36.6842 15.4737H2.15789C1.58559 15.4737 1.03672 15.2408 0.632033 14.8262C0.227349 14.4117 0 13.8494 0 13.2632V2.21053C0 1.62426 0.227349 1.062 0.632033 0.647448C1.03672 0.232894 1.58559 0 2.15789 0ZM6.47368 19.8947H19.4211C19.9934 19.8947 20.5422 20.1276 20.9469 20.5422C21.3516 20.9567 21.5789 21.519 21.5789 22.1053V28.7368H23.7368V42H15.1053V28.7368H17.2632V24.3158H4.31579C3.74348 24.3158 3.19461 24.0829 2.78993 23.6683C2.38524 23.2538 2.15789 22.6915 2.15789 22.1053V17.6842H6.47368V19.8947ZM31.7901 23.7234L35.6053 19.8152L39.4204 23.7234C40.1747 24.4963 40.6884 25.481 40.8964 26.553C41.1045 27.6249 40.9976 28.736 40.5892 29.7457C40.1809 30.7554 39.4894 31.6184 38.6023 32.2256C37.7151 32.8328 36.6722 33.1569 35.6053 33.1569C34.5383 33.1569 33.4954 32.8328 32.6083 32.2256C31.7211 31.6184 31.0297 30.7554 30.6213 29.7457C30.213 28.736 30.106 27.6249 30.3141 26.553C30.5221 25.481 31.0358 24.4963 31.7901 23.7234Z" fill="#69BF3D"/>
</svg>
