<svg width="48" height="43" viewBox="0 0 48 43" fill="none" xmlns="http://www.w3.org/2000/svg">
<path d="M32.7273 35.279C35.1249 37.4364 38.2336 38.6275 41.4545 38.623H45.8182V43H41.4545C38.3905 43.005 35.3796 42.1971 32.7273 40.6583C30.0751 42.1974 27.0641 43.0053 24 43C20.9359 43.005 17.9251 42.1971 15.2727 40.6583C12.6205 42.1974 9.60955 43.0053 6.54545 43H2.18182V38.623H6.54545C9.89891 38.623 12.96 37.3581 15.2727 35.279C17.6704 37.4364 20.7791 38.6275 24 38.623C27.3535 38.623 30.4145 37.3581 32.7273 35.279ZM25.2502 0.394817L25.4684 0.569895L48 21.1153H41.4545V34.2461C39.9683 34.248 38.4926 33.9956 37.0909 33.4998V17.0819L24 5.1438L10.9091 17.0797L10.9113 33.4976C9.71557 33.9218 8.46459 34.1688 7.19782 34.2308L6.54545 34.2461V21.1153H0L22.5316 0.569895C22.8978 0.235694 23.3663 0.0363141 23.8603 0.00449885C24.3543 -0.0273164 24.8445 0.110324 25.2502 0.394817Z" fill="#69BF3D"/>
</svg>
