<svg width="50" height="50" viewBox="0 0 50 50" fill="none" xmlns="http://www.w3.org/2000/svg">
<path d="M5.1676 0C4.31119 0 3.48986 0.340215 2.88428 0.945801C2.27871 1.55139 1.9385 2.37274 1.9385 3.22917C1.9385 4.08559 2.27871 4.90695 2.88428 5.51253C3.48986 6.11812 4.31119 6.45833 5.1676 6.45833C6.02401 6.45833 6.84534 6.11812 7.45092 5.51253C8.05649 4.90695 8.3967 4.08559 8.3967 3.22917C8.3967 2.37274 8.05649 1.55139 7.45092 0.945801C6.84534 0.340215 6.02401 0 5.1676 0V0ZM44.8334 0C43.9768 0 43.1552 0.340325 42.5494 0.946106C41.9436 1.55189 41.6033 2.3735 41.6033 3.23021C41.6033 4.08691 41.9436 4.90853 42.5494 5.51431C43.1552 6.12009 43.9768 6.46042 44.8334 6.46042C45.6901 6.46042 46.5117 6.12009 47.1175 5.51431C47.7233 4.90853 48.0636 4.08691 48.0636 3.23021C48.0636 2.3735 47.7233 1.55189 47.1175 0.946106C46.5117 0.340325 45.6901 0 44.8334 0V0ZM25.0005 4.78125C24.1441 4.78125 23.3228 5.12146 22.7172 5.72705C22.1116 6.33264 21.7714 7.15399 21.7714 8.01042C21.7714 8.86684 22.1116 9.6882 22.7172 10.2938C23.3228 10.8994 24.1441 11.2396 25.0005 11.2396C25.8569 11.2396 26.6783 10.8994 27.2838 10.2938C27.8894 9.6882 28.2296 8.86684 28.2296 8.01042C28.2296 7.15399 27.8894 6.33264 27.2838 5.72705C26.6783 5.12146 25.8569 4.78125 25.0005 4.78125ZM5.1676 10.9833C3.79734 10.9833 2.48321 11.5277 1.51429 12.4966C0.545374 13.4656 0.00104175 14.7797 0.00104175 16.15C0.00104175 17.5203 0.545374 18.8344 1.51429 19.8034C2.48321 20.7723 3.79734 21.3167 5.1676 21.3167C6.53786 21.3167 7.85199 20.7723 8.82091 19.8034C9.78983 18.8344 10.3342 17.5203 10.3342 16.15C10.3342 14.7797 9.78983 13.4656 8.82091 12.4966C7.85199 11.5277 6.53786 10.9833 5.1676 10.9833ZM44.8334 10.9833C43.4632 10.9833 42.149 11.5277 41.1801 12.4966C40.2112 13.4656 39.6669 14.7797 39.6669 16.15C39.6669 17.5203 40.2112 18.8344 41.1801 19.8034C42.149 20.7723 43.4632 21.3167 44.8334 21.3167C46.2037 21.3167 47.5178 20.7723 48.4867 19.8034C49.4557 18.8344 50 17.5203 50 16.15C50 14.7797 49.4557 13.4656 48.4867 12.4966C47.5178 11.5277 46.2037 10.9833 44.8334 10.9833ZM25.0005 17.7C24.1441 17.7 23.3228 18.0402 22.7172 18.6458C22.1116 19.2514 21.7714 20.0727 21.7714 20.9292C21.7714 21.7856 22.1116 22.6069 22.7172 23.2125C23.3228 23.8181 24.1441 24.1583 25.0005 24.1583C25.8569 24.1583 26.6783 23.8181 27.2838 23.2125C27.8894 22.6069 28.2296 21.7856 28.2296 20.9292C28.2296 20.0727 27.8894 19.2514 27.2838 18.6458C26.6783 18.0402 25.8569 17.7 25.0005 17.7ZM5.1676 25.8396C4.31119 25.8396 3.48986 26.1798 2.88428 26.7854C2.27871 27.391 1.9385 28.2123 1.9385 29.0687C1.9385 29.9252 2.27871 30.7465 2.88428 31.3521C3.48986 31.9577 4.31119 32.2979 5.1676 32.2979C6.02401 32.2979 6.84534 31.9577 7.45092 31.3521C8.05649 30.7465 8.3967 29.9252 8.3967 29.0687C8.3967 28.2123 8.05649 27.391 7.45092 26.7854C6.84534 26.1798 6.02401 25.8396 5.1676 25.8396ZM44.8334 25.8396C43.9765 25.8396 43.1546 26.18 42.5486 26.786C41.9427 27.392 41.6023 28.2139 41.6023 29.0708C41.6023 29.9278 41.9427 30.7497 42.5486 31.3557C43.1546 31.9616 43.9765 32.3021 44.8334 32.3021C45.6904 32.3021 46.5123 31.9616 47.1182 31.3557C47.7242 30.7497 48.0646 29.9278 48.0646 29.0708C48.0646 28.2139 47.7242 27.392 47.1182 26.786C46.5123 26.18 45.6904 25.8396 44.8334 25.8396ZM25.0005 28.6812C23.6297 28.6812 22.315 29.2258 21.3457 30.1951C20.3764 31.1645 19.8319 32.4792 19.8319 33.85C19.8319 35.2208 20.3764 36.5355 21.3457 37.5049C22.315 38.4742 23.6297 39.0187 25.0005 39.0187C26.3713 39.0187 27.686 38.4742 28.6553 37.5049C29.6246 36.5355 30.1692 35.2208 30.1692 33.85C30.1692 32.4792 29.6246 31.1645 28.6553 30.1951C27.686 29.2258 26.3713 28.6812 25.0005 28.6812ZM5.1676 36.8208C3.79679 36.8211 2.48224 37.3659 1.51312 38.3355C0.544011 39.305 -0.000276156 40.6198 1.05114e-07 41.9906C0.000276367 43.3615 0.545093 44.676 1.5146 45.6452C2.4841 46.6143 3.79887 47.1586 5.16968 47.1583C6.54049 47.1583 7.85516 46.6138 8.82447 45.6444C9.79377 44.6751 10.3383 43.3604 10.3383 41.9896C10.3383 40.6187 9.79377 39.3041 8.82447 38.3347C7.85516 37.3654 6.54049 36.8208 5.16968 36.8208H5.1676ZM44.8334 38.7583C43.9765 38.7583 43.1546 39.0988 42.5486 39.7047C41.9427 40.3107 41.6023 41.1326 41.6023 41.9896C41.6023 42.8466 41.9427 43.6684 42.5486 44.2744C43.1546 44.8804 43.9765 45.2208 44.8334 45.2208C45.6901 45.2208 46.5117 44.8805 47.1175 44.2747C47.7233 43.6689 48.0636 42.8473 48.0636 41.9906C48.0636 41.1339 47.7233 40.3123 47.1175 39.7065C46.5117 39.1007 45.6901 38.7604 44.8334 38.7604V38.7583ZM25.0005 43.5417C24.1441 43.5417 23.3228 43.8819 22.7172 44.4875C22.1116 45.0931 21.7714 45.9144 21.7714 46.7708C21.7714 47.6273 22.1116 48.4486 22.7172 49.0542C23.3228 49.6598 24.1441 50 25.0005 50C25.8569 50 26.6783 49.6598 27.2838 49.0542C27.8894 48.4486 28.2296 47.6273 28.2296 46.7708C28.2296 45.9144 27.8894 45.0931 27.2838 44.4875C26.6783 43.8819 25.8569 43.5417 25.0005 43.5417Z" fill="#69BF3D"/>
</svg>
