<svg width="36" height="46" viewBox="0 0 36 46" fill="none" xmlns="http://www.w3.org/2000/svg">
<path d="M0 46C0 41.3524 1.89642 36.8951 5.27208 33.6088C8.64773 30.3224 13.2261 28.4762 18 28.4762C22.7739 28.4762 27.3523 30.3224 30.7279 33.6088C34.1036 36.8951 36 41.3524 36 46H31.5C31.5 42.5143 30.0777 39.1714 27.5459 36.7066C25.0142 34.2418 21.5804 32.8571 18 32.8571C14.4196 32.8571 10.9858 34.2418 8.45406 36.7066C5.92232 39.1714 4.5 42.5143 4.5 46H0ZM18 26.2857C10.5413 26.2857 4.5 20.4043 4.5 13.1429C4.5 5.88143 10.5413 0 18 0C25.4587 0 31.5 5.88143 31.5 13.1429C31.5 20.4043 25.4587 26.2857 18 26.2857ZM18 21.9048C22.9725 21.9048 27 17.9838 27 13.1429C27 8.3019 22.9725 4.38095 18 4.38095C13.0275 4.38095 9 8.3019 9 13.1429C9 17.9838 13.0275 21.9048 18 21.9048Z" fill="#69BF3D"/>
</svg>
