<svg width="50" height="50" viewBox="0 0 50 50" fill="none" xmlns="http://www.w3.org/2000/svg">
<path d="M11.2725 35.205C10.8325 35.6925 10.2184 35.9873 9.56279 36.0257C8.90722 36.064 8.26287 35.8429 7.76898 35.4101C7.2751 34.9773 6.97134 34.3676 6.92335 33.7126C6.87535 33.0577 7.08698 32.4102 7.5125 31.91L11.3725 27.5H2.5C1.88767 27.4999 1.29666 27.2751 0.83907 26.8682C0.381483 26.4613 0.0891429 25.9006 0.0174999 25.2925L0 25C8.07764e-05 24.3877 0.22489 23.7967 0.631788 23.3391C1.03869 22.8815 1.59937 22.5891 2.2075 22.5175L2.5 22.5H9.4625L5.6 18.125C5.16107 17.6277 4.93765 16.9764 4.97891 16.3144C5.02017 15.6524 5.32272 15.0339 5.82 14.595C6.31728 14.1561 6.96856 13.9327 7.63056 13.9739C8.29257 14.0152 8.91107 14.3177 9.35 14.815L16.1275 22.5H22.4975V16.125L14.8175 9.3475C14.3606 8.94456 14.0666 8.38867 13.9906 7.78424C13.9147 7.17982 14.062 6.56846 14.405 6.065L14.5975 5.8175C15.0003 5.36128 15.5557 5.06767 16.1596 4.99173C16.7634 4.91578 17.3743 5.06273 17.8775 5.405L18.1275 5.5975L22.4975 9.4575L22.5 2.5C22.4995 1.93659 22.6894 1.38954 23.0388 0.947561C23.3882 0.505581 23.8767 0.194585 24.425 0.0650001L24.7075 0.0150001L25 0C25.6123 8.07764e-05 26.2033 0.22489 26.6609 0.631788C27.1185 1.03869 27.4109 1.59937 27.4825 2.2075L27.5 2.5L27.4975 9.495L31.9225 5.635C32.4223 5.20279 33.073 4.98604 33.7321 5.03214C34.3913 5.07824 35.0054 5.38344 35.4402 5.88103C35.875 6.37861 36.0952 7.0281 36.0525 7.68751C36.0098 8.34692 35.7078 8.96262 35.2125 9.4L27.4975 16.135V22.5H33.8675L40.6225 14.81C41.024 14.3522 41.5788 14.0567 42.1827 13.9789C42.7866 13.9011 43.3981 14.0464 43.9025 14.3875L44.15 14.58C44.6074 14.9818 44.9024 15.5367 44.9798 16.1406C45.0571 16.7445 44.9114 17.3559 44.57 17.86L44.3775 18.11L40.52 22.5H47.5C48.1123 22.5001 48.7033 22.7249 49.1609 23.1318C49.6185 23.5387 49.9109 24.0994 49.9825 24.7075L50 25C49.9999 25.6123 49.7751 26.2033 49.3682 26.6609C48.9613 27.1185 48.4006 27.4109 47.7925 27.4825L47.5 27.5H40.5175L44.38 31.91C44.7808 32.3678 45.0009 32.956 44.999 33.5644C44.9972 34.1728 44.7735 34.7597 44.37 35.215L44.1475 35.4375C43.6897 35.8383 43.1015 36.0584 42.4931 36.0565C41.8847 36.0547 41.2978 35.831 40.8425 35.4275L40.62 35.205L33.865 27.5H27.4975V33.87L35.215 40.6025C35.6743 41.0027 35.9718 41.5568 36.0514 42.1607C36.1311 42.7647 35.9874 43.377 35.6475 43.8825L35.455 44.1325C35.0546 44.5908 34.5008 44.8873 33.8975 44.9665C33.2941 45.0457 32.6825 44.902 32.1775 44.5625L31.9275 44.3725L27.5 40.5025V47.5C27.4999 48.1123 27.2751 48.7033 26.8682 49.1609C26.4613 49.6185 25.9006 49.9109 25.2925 49.9825L25 50C24.3877 49.9999 23.7967 49.7751 23.3391 49.3682C22.8815 48.9613 22.5891 48.4006 22.5175 47.7925L22.5 47.5L22.4975 40.5425L18.1575 44.375C17.9113 44.5922 17.6247 44.7587 17.3141 44.8651C17.0035 44.9715 16.675 45.0157 16.3473 44.9952C16.0196 44.9747 15.6992 44.8898 15.4043 44.7454C15.1095 44.601 14.8459 44.4 14.6287 44.1538C14.4116 43.9075 14.245 43.6209 14.1386 43.3103C14.0322 42.9997 13.988 42.6712 14.0085 42.3436C14.0291 42.0159 14.114 41.6955 14.2584 41.4006C14.4027 41.1057 14.6038 40.8422 14.85 40.625L22.4975 33.875V27.5H18.025L11.2725 35.205Z" fill="#69BF3D"/>
</svg>
