<svg width="49" height="50" viewBox="0 0 49 50" fill="none" xmlns="http://www.w3.org/2000/svg">
<path d="M36.75 10H49V15H44.1V47.5C44.1 48.163 43.8419 48.7989 43.3824 49.2678C42.923 49.7366 42.2998 50 41.65 50H7.35C6.70022 50 6.07705 49.7366 5.61759 49.2678C5.15812 48.7989 4.9 48.163 4.9 47.5V15H0V10H12.25V2.5C12.25 1.83696 12.5081 1.20107 12.9676 0.732233C13.4271 0.263392 14.0502 0 14.7 0H34.3C34.9498 0 35.5729 0.263392 36.0324 0.732233C36.4919 1.20107 36.75 1.83696 36.75 2.5V10ZM39.2 15H9.8V45H39.2V15ZM17.15 22.5H22.05V37.5H17.15V22.5ZM26.95 22.5H31.85V37.5H26.95V22.5ZM17.15 5V10H31.85V5H17.15Z" fill="#69BF3D"/>
</svg>
