<svg width="51" height="51" viewBox="0 0 51 51" fill="none" xmlns="http://www.w3.org/2000/svg">
<path d="M26.0929 3.31899C25.7123 3.16575 25.2877 3.16575 24.9071 3.31899L5.88412 10.9643L13.5469 14.0423L33.1628 6.15995L26.0929 3.31899ZM37.4531 7.88631L17.8372 15.7686L25.5 18.8466L45.1159 10.9643L37.4531 7.88631ZM47.8125 13.3312L27.0938 21.6587V47.032L47.8125 38.7045V13.3344V13.3312ZM23.9062 47.0352V21.6555L3.1875 13.3312V38.7077L23.9062 47.0352ZM23.7246 0.343511C24.8643 -0.114504 26.1357 -0.114504 27.2754 0.343511L49.9991 9.47815C50.2946 9.59712 50.5478 9.80225 50.7262 10.0671C50.9046 10.332 50.9999 10.6445 51 10.9643V38.7077C50.9996 39.3477 50.8084 39.9729 50.451 40.5027C50.0937 41.0325 49.5865 41.4425 48.9951 41.68L26.0929 50.8851C25.7123 51.0383 25.2877 51.0383 24.9071 50.8851L2.00813 41.68C1.41605 41.443 0.908254 41.0332 0.550297 40.5034C0.192339 39.9735 0.000657675 39.3481 0 38.7077L0 10.9643C7.40773e-05 10.6445 0.0954457 10.332 0.273829 10.0671C0.452211 9.80225 0.705434 9.59712 1.00087 9.47815L23.7246 0.343511Z" fill="#69BF3D"/>
</svg>
