<svg width="20" height="23" viewBox="0 0 20 23" fill="none" xmlns="http://www.w3.org/2000/svg">
<path opacity="0.3" d="M7.64865 1.1816C6.42071 0.486317 4.99909 0.248993 3.75008 0.556412C2.478 0.868383 1.40551 1.74608 0.968037 3.19329C0.285441 5.45541 -0.0231624 8.65724 1.0946 12.8208C2.19784 16.9327 3.90577 19.6841 5.46048 21.4665C6.44204 22.5931 7.76189 22.9778 9.03717 22.7687C10.2939 22.5626 11.4799 21.788 12.2981 20.649C12.5016 20.3657 12.641 20.0417 12.7066 19.6992C12.7722 19.3568 12.7624 19.0041 12.6779 18.6655L12.0572 16.1821C11.8666 15.418 11.4067 14.7472 10.7615 14.2924C10.1163 13.8376 9.32897 13.6292 8.5433 13.7052L7.61005 13.796C7.15766 13.8393 6.80062 13.664 6.64499 13.3957C6.12047 12.4976 5.86878 11.4052 5.91791 10.3151C5.93301 9.97129 6.18733 9.63051 6.61887 9.45927L7.5386 9.09424C8.28201 8.79964 8.89159 8.24456 9.25302 7.53312C9.61445 6.82168 9.70289 6.00275 9.50175 5.22993L8.85579 2.74919C8.77017 2.42073 8.61917 2.11268 8.41179 1.84338C8.20441 1.57408 7.94488 1.34902 7.64865 1.1816ZM2.22733 3.57505C2.52083 2.6035 3.20971 2.04067 4.06676 1.82971C4.94723 1.61295 6.02573 1.76848 7.00089 2.32111C7.14385 2.40183 7.2691 2.51039 7.36917 2.64032C7.46924 2.77025 7.54208 2.91889 7.58336 3.07738L8.22805 5.55777C8.34874 6.02128 8.29581 6.51247 8.07918 6.93927C7.86255 7.36606 7.4971 7.69916 7.05131 7.87613L6.13158 8.24115C5.33609 8.55596 4.64659 9.28036 4.6035 10.2539C4.54496 11.5726 4.84535 12.9202 5.50833 14.0547C5.9932 14.8834 6.92668 15.18 7.7394 15.1009L8.67266 15.0101C9.14416 14.9642 9.61677 15.0891 10.0041 15.362C10.3914 15.6348 10.6675 16.0373 10.7819 16.4959L11.401 18.9802C11.4791 19.2924 11.4158 19.623 11.2283 19.8843C10.5884 20.7759 9.69298 21.331 8.82176 21.4742C7.96911 21.6143 7.11555 21.3696 6.4528 20.6076C5.03011 18.9755 3.4175 16.4039 2.36403 12.4836C1.31206 8.55285 1.61655 5.59998 2.2286 3.5754L2.22733 3.57505ZM15.5431 3.27142C15.4184 3.14965 15.2504 3.08218 15.076 3.08384C14.9016 3.08551 14.7352 3.15617 14.6132 3.28029C14.4913 3.40441 14.424 3.57181 14.4259 3.74568C14.4279 3.91954 14.4991 4.08563 14.6238 4.20739L15.0368 4.61142C16.3279 5.87092 17.2944 7.42279 17.8538 9.13441C18.4132 10.846 18.5489 12.6665 18.2493 14.4402L18.1808 14.8496C18.1622 14.9361 18.1614 15.0256 18.1785 15.1125C18.1955 15.1994 18.23 15.282 18.2799 15.3553C18.3299 15.4286 18.3941 15.4911 18.4689 15.5391C18.5437 15.587 18.6274 15.6193 18.7149 15.6341C18.8025 15.6489 18.8922 15.6459 18.9785 15.6252C19.0648 15.6046 19.146 15.5667 19.2171 15.5138C19.2883 15.461 19.348 15.3943 19.3925 15.3178C19.4371 15.2413 19.4656 15.1566 19.4764 15.0687L19.5459 14.661C19.8811 12.6782 19.7296 10.6432 19.1043 8.72982C18.479 6.81646 17.3985 5.08169 15.9552 3.67384L15.5431 3.27142ZM13.1279 6.25209C13.2539 6.13219 13.4226 6.06718 13.5969 6.07136C13.7712 6.07554 13.9369 6.14856 14.0574 6.27438L14.1891 6.41104C15.0455 7.30347 15.6976 8.37032 16.1004 9.53785C16.5032 10.7054 16.647 11.9457 16.522 13.1732L16.4853 13.526C16.4786 13.6132 16.4545 13.6981 16.4143 13.7757C16.3742 13.8534 16.3189 13.9222 16.2516 13.9782C16.1844 14.0342 16.1065 14.0762 16.0227 14.1017C15.9389 14.1272 15.8508 14.1357 15.7635 14.1268C15.6763 14.1178 15.5917 14.0916 15.5148 14.0496C15.4378 14.0076 15.37 13.9506 15.3154 13.8822C15.2607 13.8137 15.2204 13.735 15.1967 13.6508C15.1729 13.5666 15.1663 13.4786 15.1773 13.3919L15.2127 13.0387C15.3187 12.0003 15.1973 10.951 14.8569 9.9632C14.5165 8.9754 13.9652 8.07267 13.241 7.3174L13.1097 7.17948C13.0499 7.11724 13.003 7.04388 12.9716 6.9636C12.9402 6.88332 12.925 6.79769 12.9268 6.7116C12.9286 6.62551 12.9474 6.54065 12.9821 6.46187C13.0168 6.38308 13.0668 6.31192 13.1292 6.25244L13.1279 6.25209Z" fill="#121110"/>
</svg>
